<?xml version="1.0" encoding="utf-8"?>
<!-- Generator: Adobe Illustrator 24.0.2, SVG Export Plug-In . SVG Version: 6.00 Build 0)  -->
<svg version="1.1" id="Capa_1" xmlns="http://www.w3.org/2000/svg" xmlns:xlink="http://www.w3.org/1999/xlink" x="0px" y="0px"
	 viewBox="0 0 112.9 112.8" style="enable-background:new 0 0 112.9 112.8;" xml:space="preserve">
<style type="text/css">
	.st0{fill:#FFFFFF;}
</style>
<g>
	<path class="st0" d="M56.4,0C25.2,0,0,25.2,0,56.4s25.2,56.4,56.4,56.4s56.4-25.2,56.4-56.4S87.5,0,56.4,0z M56.4,107.9
		c-28.6,0-51.7-23.1-51.7-51.7c0-28.6,23.1-51.7,51.7-51.7c28.6,0,51.7,23.1,51.7,51.7C108.1,84.8,84.9,107.9,56.4,107.9z"/>
	<path class="st0" d="M52.7,0.1 M55.7,72.6L25.8,42.9c-1.2-1.2-3.1-1.2-4.2,0c-1.2,1.2-1.2,3.1,0,4.2l32,32l0,0l2.1,2.1l2.1-2.1
		c0,0,0,0,0,0l32-32c1.2-1.2,1.2-3.1,0-4.2c-1.2-1.2-3.1-1.2-4.2,0L55.7,72.6"/>
</g>
</svg>
