<?xml version="1.0" encoding="utf-8"?>
<!-- Generator: Adobe Illustrator 24.0.2, SVG Export Plug-In . SVG Version: 6.00 Build 0)  -->
<svg version="1.1" id="Capa_1" xmlns="http://www.w3.org/2000/svg" xmlns:xlink="http://www.w3.org/1999/xlink" x="0px" y="0px"
	 viewBox="0 0 512 512" style="enable-background:new 0 0 512 512;" xml:space="preserve">
<style type="text/css">
	.st0{fill:#FFFFFF;}
</style>
<g>
	<g>
		<path class="st0" d="M256,0C115,0,0,115.1,0,256c0,141,115.1,256,256,256c141,0,256-115,256-256C512,115,397,0,256,0z M256,482
			C131.4,482,30,380.6,30,256c0-63.2,26.1-120.5,68.1-161.6l49,56.6H136c-24.8,0-45,20.2-45,45v150c0,24.8,20.2,45,45,45h219.2
			l38.3,44.2C355.4,464.5,307.7,482,256,482z M256,331c13.9,0,26.9-3.8,38.1-10.4l35,40.4H136c-8.3,0-15-6.7-15-15V196
			c0-8.3,6.7-15,15-15h37.2l24.4,28.1C187.2,222,181,238.3,181,256C181,297.4,214.6,331,256,331z M256,181
			c-12.8,0-24.9,3.2-35.4,8.9l-19.6-22.6l31.3-31.3h47.6l40.6,40.6c2.8,2.8,6.6,4.4,10.6,4.4h45c8.3,0,15,6.7,15,15v150
			c0,8.3-6.7,15-15,15h-7.2l-52.5-60.6C325.6,288,331,272.6,331,256C331,214.6,297.4,181,256,181z M241.1,213.6
			c4.7-1.6,9.7-2.6,14.9-2.6c24.8,0,45,20.2,45,45c0,7.5-1.9,14.6-5.1,20.8L241.1,213.6z M273.9,297.3c-5.5,2.4-11.6,3.7-17.9,3.7
			c-24.8,0-45-20.2-45-45c0-8.6,2.5-16.7,6.7-23.6L273.9,297.3z M416,415.4L392.2,388c16.8-6.5,28.8-22.9,28.8-42V196
			c0-24.8-20.2-45-45-45h-38.8l-40.6-40.6c-2.8-2.8-6.6-4.4-10.6-4.4h-60c-4,0-7.8,1.6-10.6,4.4l-34.1,34.1l-60.3-69.6
			C158.6,46.7,205.4,30,256,30c124.6,0,226,101.4,226,226C482,318.2,456.8,374.5,416,415.4z"/>
	</g>
</g>
</svg>
